{"scene":0,"asset":{"generator":"ImageToStl.com","version":"2.0"},"scenes":[{"name":"Scene","nodes":[0]}],"nodes":[{"name":"Node0","children":[1]},{"name":"Node1","mesh":0}],"materials":[{"name":"mat0","pbrMetallicRoughness":{"baseColorFactor":[1.0,1.0,1.0,1.0],"metallicFactor":0.5,"roughnessFactor":1.0,"baseColorTexture":{"index":0}},"emissiveFactor":[0.0,0.0,0.0],"doubleSided":true}],"images":[{"bufferView":0,"name":"","mimeType":"image/jpeg"}],"textures":[{"sampler":0,"source":0}],"samplers":[{"magFilter":9729,"minFilter":9987}],"meshes":[{"name":"Mesh0","primitives":[{"indices":3,"material":0,"attributes":{"POSITION":0,"NORMAL":1,"TEXCOORD_0":2}}]}],"accessors":[{"bufferView":1,"componentType":5126,"count":4,"type":"VEC3","min":[-10.0,0.0,-15.499125],"max":[10.0,0.0,15.499125]},{"bufferView":2,"componentType":5126,"count":4,"type":"VEC3"},{"bufferView":3,"componentType":5126,"count":4,"type":"VEC2"},{"bufferView":4,"componentType":5123,"count":18,"type":"SCALAR"}],"bufferViews":[{"buffer":0,"byteLength":29466,"byteOffset":0},{"target":34962,"buffer":0,"byteLength":48,"byteOffset":29468},{"target":34962,"buffer":0,"byteLength":48,"byteOffset":29516},{"target":34962,"buffer":0,"byteLength":32,"byteOffset":29564},{"target":34963,"buffer":0,"byteLength":36,"byteOffset":29596}],"buffers":[{"byteLength":29632,"uri":"data:application/octet-stream;base64,"}]}